<svg height="496pt" viewBox="0 0 496 496" width="496pt" xmlns="http://www.w3.org/2000/svg"><path d="m144 176c-44.113281 0-80 35.886719-80 80s35.886719 80 80 80 80-35.886719 80-80-35.886719-80-80-80zm0 144c-35.289062 0-64-28.710938-64-64s28.710938-64 64-64 64 28.710938 64 64-28.710938 64-64 64zm0 0"/><path d="m160 208h-32c-4.414062 0-8 3.574219-8 8v80c0 4.425781 3.585938 8 8 8h32c4.414062 0 8-3.574219 8-8v-80c0-4.425781-3.585938-8-8-8zm-8 80h-16v-64h16zm0 0"/><path d="m248 32h-208c-4.414062 0-8 3.574219-8 8v80c0 4.425781 3.585938 8 8 8h208c4.414062 0 8-3.574219 8-8v-80c0-4.425781-3.585938-8-8-8zm-8 80h-192v-64h192zm0 0"/><path d="m80 168c0-13.230469-10.769531-24-24-24s-24 10.769531-24 24 10.769531 24 24 24 24-10.769531 24-24zm-24 8c-4.40625 0-8-3.585938-8-8s3.59375-8 8-8 8 3.585938 8 8-3.59375 8-8 8zm0 0"/><path d="m232 144c-13.230469 0-24 10.769531-24 24s10.769531 24 24 24 24-10.769531 24-24-10.769531-24-24-24zm0 32c-4.40625 0-8-3.585938-8-8s3.59375-8 8-8 8 3.585938 8 8-3.59375 8-8 8zm0 0"/><path d="m488 80h-24v-80h-16v80h-24c-4.414062 0-8 3.574219-8 8v32c0 4.425781 3.585938 8 8 8h8v72c0 10.414062 6.710938 19.214844 16 22.527344v217.472656c0 4.414062-3.59375 8-8 8h-72v-225.472656c9.289062-3.3125 16-12.113282 16-22.527344v-72h8c4.414062 0 8-3.574219 8-8v-32c0-4.425781-3.585938-8-8-8h-24v-80h-16v80h-24c-4.414062 0-8 3.574219-8 8v32c0 4.425781 3.585938 8 8 8h8v72c0 10.414062 6.710938 19.214844 16 22.527344v225.472656h-112v-16h8c4.414062 0 8-3.574219 8-8v-24h8c4.414062 0 8-3.574219 8-8v-25.472656c9.289062-3.3125 16-12.113282 16-22.527344v-320c0-13.230469-10.769531-24-24-24h-240c-13.230469 0-24 10.769531-24 24v320c0 13.230469 10.769531 24 24 24h72v24c0 4.425781 3.585938 8 8 8h8v24c0 4.425781 3.585938 8 8 8h8v8c0 13.230469 10.769531 24 24 24h72v8c0 13.230469 10.769531 24 24 24h96c13.230469 0 24-10.769531 24-24v-8h72c13.230469 0 24-10.769531 24-24v-217.472656c9.289062-3.3125 16-12.113282 16-22.527344v-72h8c4.414062 0 8-3.574219 8-8v-32c0-4.425781-3.585938-8-8-8zm-152 16h48v16h-48zm32 32v72c0 4.414062-3.59375 8-8 8s-8-3.585938-8-8v-72zm-128 288h-16v-16h16zm-32-32v-16h48v16zm-192-40v-320c0-4.414062 3.59375-8 8-8h240c4.40625 0 8 3.585938 8 8v320c0 4.414062-3.59375 8-8 8h-240c-4.40625 0-8-3.585938-8-8zm144 24v16h-48v-16zm-16 32v16h-16v-16zm8 48c-4.40625 0-8-3.585938-8-8v-8h8c4.414062 0 8-3.574219 8-8v-24h8c4.414062 0 8-3.574219 8-8v-24h16v24c0 4.425781 3.585938 8 8 8h8v24c0 4.425781 3.585938 8 8 8h8v16zm200 24c0 4.414062-3.59375 8-8 8h-96c-4.40625 0-8-3.585938-8-8v-8h112zm112-272c0 4.414062-3.59375 8-8 8s-8-3.585938-8-8v-72h16zm16-88h-48v-16h48zm0 0"/></svg>