<?xml version="1.0" encoding="UTF-8" standalone="yes"?>
<!-- Created with sK1/UniConvertor (http://sk1project.org/) -->
<svg xmlns="http://www.w3.org/2000/svg" xmlns:xlink="http://www.w3.org/1999/xlink"
  width="560pt" height="332.8pt" viewBox="0 0 560 332.8"
  fill-rule="evenodd">
<g>
<path style="stroke:none; fill:#ffffff" d="M 0 0L 0 332.8L 560 332.8L 560 0L 0 0z"/>
<path style="stroke:none; fill:#bdbdbd" d="M 160 14.4L 160 15.2L 220 15.2L 220 74.4C 220 78.4784 217.878 91.6816 221.282 94.3776C 223.377 96.0368 227.903 95.2 230.4 95.2L 255.2 95.2L 255.2 94.4L 220.8 94.4L 220.8 35.2C 220.8 31.1216 222.922 17.9186 219.518 15.2222C 216.334 12.701 207.118 14.4 203.2 14.4L 160 14.4M 404.8 14.4L 404.8 15.2L 545.6 15.2C 541.625 13.5319 536.28 14.4 532 14.4L 504 14.4L 404.8 14.4z"/>
<path style="stroke:none; fill:#010101" d="M 160 15.2L 160 95.2L 124.8 95.2L 124.8 115.2L 254.4 115.2L 254.4 95.2L 220 95.2L 220 15.2L 160 15.2z"/>
<path style="stroke:none; fill:#414141" d="M 404.8 15.2L 404.8 164.8L 15.2 164.8L 15.2 165.6L 303.2 165.6L 377.6 165.6C 383.478 165.6 399.677 168.453 404.318 164.778C 406.573 162.991 405.6 157.721 405.6 155.2L 405.6 129.6L 405.6 49.6C 405.6 39.8354 408.566 24.1743 404.8 15.2z"/>
<path style="stroke:none; fill:#010101" d="M 405.6 15.2L 405.6 126.4L 405.6 154.4C 405.6 157.202 406.505 162.13 404.318 164.318C 400.366 168.269 384.599 165.6 379.2 165.6L 306.4 165.6L 15.2 165.6L 15.2 315.2L 544.8 315.2L 544.8 15.2L 405.6 15.2z"/>
<path style="stroke:none; fill:#7d7d7d" d="M 544.8 15.2L 544.8 315.2L 545.6 315.2L 545.6 103.2L 545.6 41.6C 545.6 33.9322 547.766 22.2681 544.8 15.2M 424.8 35.2L 424.8 120L 425.6 120L 425.6 60.8C 425.6 53.3422 427.686 42.077 424.8 35.2z"/>
<path style="stroke:none; fill:#ffffff" d="M 425.6 35.2L 425.6 120L 524.8 120L 524.8 35.2L 425.6 35.2z"/>
<path style="stroke:none; fill:#414141" d="M 524.8 35.2L 524.8 120L 525.6 120L 525.6 60.8C 525.6 53.3422 527.686 42.077 524.8 35.2z"/>
<path style="stroke:none; fill:#bdbdbd" d="M 434.4 100L 435.2 100L 435.2 60L 445.6 60C 443.19 58.9889 437.124 58.0816 435.222 60.4827C 433.359 62.8346 434.4 68.3751 434.4 71.2L 434.4 100z"/>
<path style="stroke:none; fill:#010101" d="M 435.2 60L 435.2 100L 444.8 100L 444.8 60L 435.2 60z"/>
<path style="stroke:none; fill:#7d7d7d" d="M 444.8 60L 444.8 100L 445.6 100C 445.6 88.7608 449.127 70.3116 444.8 60z"/>
<path style="stroke:none; fill:#bdbdbd" d="M 124.8 94.4L 124.8 95.2L 160 95.2C 150.83 91.352 134.784 94.4 124.8 94.4z"/>
<path style="stroke:none; fill:#8f8f8f" d="M 220 94.4L 220.8 95.2L 220 94.4z"/>
<path style="stroke:none; fill:#414141" d="M 254.4 95.2L 254.4 115.2L 255.2 115.2C 255.2 109.202 256.726 100.742 254.4 95.2M 425.6 129.6L 425.6 130.4L 524.8 130.4L 524.8 295.2C 528.886 285.465 525.6 268.202 525.6 257.6L 525.6 168.8L 525.6 140C 525.6 137.479 526.573 132.209 524.318 130.422C 519.787 126.834 504.129 129.6 498.4 129.6L 425.6 129.6z"/>
<path style="stroke:none; fill:#7d7d7d" d="M 424.8 130.4L 424.8 295.2L 425.6 295.2L 425.6 179.2L 425.6 146.4C 425.6 141.477 426.716 134.966 424.8 130.4z"/>
<path style="stroke:none; fill:#ffffff" d="M 425.6 130.4L 425.6 294.4L 524.8 294.4L 524.8 130.4L 425.6 130.4z"/>
<path style="stroke:none; fill:#bdbdbd" d="M 434.4 149.6L 434.4 189.6L 435.2 189.6C 435.2 178.361 438.727 159.911 434.4 149.6z"/>
<path style="stroke:none; fill:#414141" d="M 435.2 149.6L 435.2 150.4L 444.8 150.4C 441.842 149.158 438.386 149.6 435.2 149.6z"/>
<path style="stroke:none; fill:#7d7d7d" d="M 444.8 149.6L 444.8 189.6L 435.2 189.6L 435.2 190.4C 437.744 190.4 442.99 191.374 444.778 189.118C 446.54 186.892 445.6 181.862 445.6 179.2C 445.6 170.693 448.086 157.431 444.8 149.6z"/>
<path style="stroke:none; fill:#010101" d="M 435.2 150.4L 435.2 189.6L 444.8 189.6L 444.8 150.4L 435.2 150.4z"/>
<path style="stroke:none; fill:#bdbdbd" d="M 169.6 159.2L 169.6 158.4L 149.6 158.4L 149.6 155.2L 169.6 155.2C 165.165 153.339 158.396 154.204 153.604 154.415C 151.97 154.487 148.584 154.853 149.402 157.393C 150.614 161.159 166.19 159.2 169.6 159.2M 229.6 159.2L 229.6 158.4L 209.6 158.4L 209.6 155.2L 229.6 155.2C 225.165 153.339 218.396 154.204 213.604 154.415C 211.97 154.487 208.584 154.853 209.402 157.393C 210.614 161.159 226.19 159.2 229.6 159.2z"/>
<path style="stroke:none; fill:#010101" d="M 149.6 155.2L 149.6 158.4L 169.6 158.4L 169.6 155.2L 149.6 155.2M 209.6 155.2L 209.6 158.4L 229.6 158.4L 229.6 155.2L 209.6 155.2z"/>
<path style="stroke:none; fill:#bdbdbd" d="M 14.4 164.8L 14.4 315.2L 15.2 315.2L 15.2 209.6L 15.2 179.2C 15.2 174.705 16.1511 168.973 14.4 164.8z"/>
<path style="stroke:none; fill:#515151" d="M 155.2 178.4L 156 179.2L 155.2 178.4z"/>
<path style="stroke:none; fill:#7d7d7d" d="M 156 178.4L 156.8 179.2L 156 178.4z"/>
<path style="stroke:none; fill:#adadad" d="M 157.334 178.666C 156.978 179.022 157.822 178.978 157.866 178.934C 158.222 178.578 157.378 178.622 157.334 178.666z"/>
<path style="stroke:none; fill:#7d7d7d" d="M 158.4 178.4L 159.2 179.2L 158.4 178.4z"/>
<path style="stroke:none; fill:#515151" d="M 159.2 178.4L 160 179.2L 159.2 178.4z"/>
<path style="stroke:none; fill:#2f2f2f" d="M 187.2 178.4L 188 179.2L 187.2 178.4z"/>
<path style="stroke:none; fill:#6f6f6f" d="M 188 178.4L 188.8 179.2L 188 178.4z"/>
<path style="stroke:none; fill:#bdbdbd" d="M 189.334 178.666C 188.978 179.022 189.822 178.978 189.866 178.934C 190.222 178.578 189.378 178.622 189.334 178.666z"/>
<path style="stroke:none; fill:#5f5f5f" d="M 190.934 178.666C 190.578 179.022 191.422 178.978 191.466 178.934C 191.822 178.578 190.978 178.622 190.934 178.666M 220 178.4L 220.8 179.2L 220 178.4z"/>
<path style="stroke:none; fill:#8f8f8f" d="M 220.8 178.4L 221.6 179.2L 220.8 178.4z"/>
<path style="stroke:none; fill:#bdbdbd" d="M 221.6 178.4L 222.4 179.2L 221.6 178.4z"/>
<path style="stroke:none; fill:#6f6f6f" d="M 222.934 178.666C 222.578 179.022 223.422 178.978 223.466 178.934C 223.822 178.578 222.978 178.622 222.934 178.666z"/>
<path style="stroke:none; fill:#5f5f5f" d="M 153.6 179.2L 154.4 180L 153.6 179.2z"/>
<path style="stroke:none; fill:#ffffff" d="M 154.435 180.022C 146.034 184.485 153.566 196.52 161.429 191.857C 168.73 187.527 161.81 176.105 154.435 180.022z"/>
<path style="stroke:none; fill:#7d7d7d" d="M 160.8 179.2L 161.6 180L 160.8 179.2z"/>
<path style="stroke:none; fill:#414141" d="M 185.6 179.2L 186.4 180L 185.6 179.2z"/>
<path style="stroke:none; fill:#bdbdbd" d="M 186.4 179.2L 187.2 180L 186.4 179.2z"/>
<path style="stroke:none; fill:#ffffff" d="M 187.215 179.794C 178.695 183.144 184.415 195.59 192.765 192.206C 200.801 188.95 195.432 176.564 187.215 179.794z"/>
<path style="stroke:none; fill:#9f9f9f" d="M 192.8 179.2L 193.6 180L 192.8 179.2M 218.4 179.2L 219.2 180L 218.4 179.2z"/>
<path style="stroke:none; fill:#ffffff" d="M 219.235 179.794C 211.201 183.023 216.517 195.486 224.785 192.318C 232.935 189.194 227.56 176.449 219.235 179.794z"/>
<path style="stroke:none; fill:#bdbdbd" d="M 224.8 179.2L 225.6 180L 224.8 179.2z"/>
<path style="stroke:none; fill:#2f2f2f" d="M 225.6 179.2L 226.4 180L 225.6 179.2z"/>
<path style="stroke:none; fill:#bdbdbd" d="M 152.8 180L 153.6 180.8L 152.8 180z"/>
<path style="stroke:none; fill:#cfcfcf" d="M 161.6 180L 162.4 180.8L 161.6 180z"/>
<path style="stroke:none; fill:#8f8f8f" d="M 184.8 180L 185.6 180.8L 184.8 180z"/>
<path style="stroke:none; fill:#2f2f2f" d="M 194.4 180L 195.2 180.8L 194.4 180z"/>
<path style="stroke:none; fill:#515151" d="M 216.8 180L 217.6 180.8L 216.8 180z"/>
<path style="stroke:none; fill:#6f6f6f" d="M 226.4 180L 227.2 180.8L 226.4 180z"/>
<path style="stroke:none; fill:#cfcfcf" d="M 152 180.8L 152.8 181.6L 152 180.8M 162.4 180.8L 163.2 181.6L 162.4 180.8z"/>
<path style="stroke:none; fill:#9f9f9f" d="M 184 180.8L 184.8 181.6L 184 180.8z"/>
<path style="stroke:none; fill:#2f2f2f" d="M 195.2 180.8L 196 181.6L 195.2 180.8z"/>
<path style="stroke:none; fill:#515151" d="M 216 180.8L 216.8 181.6L 216 180.8z"/>
<path style="stroke:none; fill:#7d7d7d" d="M 227.2 180.8L 228 181.6L 227.2 180.8z"/>
<path style="stroke:none; fill:#8f8f8f" d="M 151.2 181.6L 152 182.4L 151.2 181.6z"/>
<path style="stroke:none; fill:#bdbdbd" d="M 163.2 181.6L 164 182.4L 163.2 181.6z"/>
<path style="stroke:none; fill:#515151" d="M 183.2 181.6L 184 182.4L 183.2 181.6z"/>
<path style="stroke:none; fill:#414141" d="M 228 181.6L 228.8 182.4L 228 181.6M 150.4 182.4L 151.2 183.2L 150.4 182.4M 164 182.4L 164.8 183.2L 164 182.4z"/>
<path style="stroke:none; fill:#8f8f8f" d="M 196 182.4L 196.8 183.2L 196 182.4z"/>
<path style="stroke:none; fill:#9f9f9f" d="M 215.2 182.4L 216 183.2L 215.2 182.4M 150.4 183.2L 151.2 184L 150.4 183.2z"/>
<path style="stroke:none; fill:#adadad" d="M 164 183.2L 164.8 184L 164 183.2z"/>
<path style="stroke:none; fill:#5f5f5f" d="M 182.4 183.2L 183.2 184L 182.4 183.2z"/>
<path style="stroke:none; fill:#515151" d="M 228.8 183.2L 229.6 184L 228.8 183.2z"/>
<path style="stroke:none; fill:#cfcfcf" d="M 182.666 184.534C 182.622 184.578 182.578 185.422 182.934 185.066C 182.978 185.022 183.022 184.178 182.666 184.534z"/>
<path style="stroke:none; fill:#515151" d="M 196.8 184L 197.6 184.8L 196.8 184z"/>
<path style="stroke:none; fill:#7d7d7d" d="M 214.666 184.534C 214.622 184.578 214.578 185.422 214.934 185.066C 214.978 185.022 215.022 184.178 214.666 184.534z"/>
<path style="stroke:none; fill:#8f8f8f" d="M 228.8 184L 229.6 184.8L 228.8 184z"/>
<path style="stroke:none; fill:#7d7d7d" d="M 35.2 184.8L 35.2 185.6L 124.8 185.6C 117.541 182.554 105.478 184.8 97.6 184.8L 35.2 184.8z"/>
<path style="stroke:none; fill:#414141" d="M 164.8 184.8L 164.8 187.2L 165.6 187.2C 165.399 186.038 165.348 185.798 164.8 184.8z"/>
<path style="stroke:none; fill:#7d7d7d" d="M 196.8 184.8L 196.8 187.2L 197.6 187.2C 197.399 186.038 197.348 185.798 196.8 184.8z"/>
<path style="stroke:none; fill:#bdbdbd" d="M 228.8 184.8L 228.8 188L 229.6 188C 229.461 186.652 229.346 186.005 228.8 184.8z"/>
<path style="stroke:none; fill:#7d7d7d" d="M 255.2 184.8L 255.2 185.6L 404.8 185.6C 400.627 183.849 394.895 184.8 390.4 184.8L 360 184.8L 255.2 184.8z"/>
<path style="stroke:none; fill:#ffffff" d="M 35.2 185.6L 35.2 294.4L 124.8 294.4L 124.8 185.6L 35.2 185.6z"/>
<path style="stroke:none; fill:#414141" d="M 124.8 185.6L 124.8 295.2L 125.6 295.2L 125.6 218.4C 125.6 209.054 128.406 194.194 124.8 185.6z"/>
<path style="stroke:none; fill:#1f1f1f" d="M 149.866 186.134C 149.822 186.178 149.778 187.022 150.134 186.666C 150.178 186.622 150.222 185.778 149.866 186.134z"/>
<path style="stroke:none; fill:#bdbdbd" d="M 214.4 185.6L 215.2 186.4L 214.4 185.6z"/>
<path style="stroke:none; fill:#ffffff" d="M 255.2 185.6L 255.2 234.4L 404.8 234.4L 404.8 185.6L 255.2 185.6z"/>
<path style="stroke:none; fill:#414141" d="M 404.8 185.6L 404.8 235.2L 405.6 235.2L 405.6 201.6C 405.6 196.677 406.716 190.166 404.8 185.6z"/>
<path style="stroke:none; fill:#6f6f6f" d="M 214.666 186.934C 214.622 186.978 214.578 187.822 214.934 187.466C 214.978 187.422 215.022 186.578 214.666 186.934z"/>
<path style="stroke:none; fill:#adadad" d="M 182.4 187.2L 183.2 188L 182.4 187.2z"/>
<path style="stroke:none; fill:#515151" d="M 196.8 187.2L 197.6 188L 196.8 187.2z"/>
<path style="stroke:none; fill:#adadad" d="M 150.4 188L 151.2 188.8L 150.4 188z"/>
<path style="stroke:none; fill:#cfcfcf" d="M 164 188L 164.8 188.8L 164 188z"/>
<path style="stroke:none; fill:#6f6f6f" d="M 182.4 188L 183.2 188.8L 182.4 188z"/>
<path style="stroke:none; fill:#5f5f5f" d="M 228.8 188L 229.6 188.8L 228.8 188z"/>
<path style="stroke:none; fill:#414141" d="M 150.4 188.8L 151.2 189.6L 150.4 188.8z"/>
<path style="stroke:none; fill:#5f5f5f" d="M 164 188.8L 164.8 189.6L 164 188.8z"/>
<path style="stroke:none; fill:#9f9f9f" d="M 196 188.8L 196.8 189.6L 196 188.8z"/>
<path style="stroke:none; fill:#bdbdbd" d="M 215.2 188.8L 216 189.6L 215.2 188.8M 151.2 189.6L 152 190.4L 151.2 189.6z"/>
<path style="stroke:none; fill:#cfcfcf" d="M 163.2 189.6L 164 190.4L 163.2 189.6z"/>
<path style="stroke:none; fill:#7d7d7d" d="M 183.2 189.6L 184 190.4L 183.2 189.6z"/>
<path style="stroke:none; fill:#2f2f2f" d="M 215.2 189.6L 216 190.4L 215.2 189.6z"/>
<path style="stroke:none; fill:#515151" d="M 228 189.6L 228.8 190.4L 228 189.6z"/>
<path style="stroke:none; fill:#bdbdbd" d="M 444.8 189.6L 445.6 190.4L 444.8 189.6z"/>
<path style="stroke:none; fill:#2f2f2f" d="M 163.2 190.4L 164 191.2L 163.2 190.4z"/>
<path style="stroke:none; fill:#adadad" d="M 184 190.4L 184.8 191.2L 184 190.4z"/>
<path style="stroke:none; fill:#5f5f5f" d="M 195.2 190.4L 196 191.2L 195.2 190.4M 216 190.4L 216.8 191.2L 216 190.4z"/>
<path style="stroke:none; fill:#9f9f9f" d="M 227.2 190.4L 228 191.2L 227.2 190.4z"/>
<path style="stroke:none; fill:#2f2f2f" d="M 152 191.2L 152.8 192L 152 191.2z"/>
<path style="stroke:none; fill:#cfcfcf" d="M 152.8 191.2L 153.6 192L 152.8 191.2z"/>
<path style="stroke:none; fill:#2f2f2f" d="M 162.4 191.2L 163.2 192L 162.4 191.2z"/>
<path style="stroke:none; fill:#adadad" d="M 184.8 191.2L 185.6 192L 184.8 191.2z"/>
<path style="stroke:none; fill:#5f5f5f" d="M 194.4 191.2L 195.2 192L 194.4 191.2M 216.8 191.2L 217.6 192L 216.8 191.2z"/>
<path style="stroke:none; fill:#9f9f9f" d="M 226.4 191.2L 227.2 192L 226.4 191.2z"/>
<path style="stroke:none; fill:#8f8f8f" d="M 153.6 192L 154.4 192.8L 153.6 192z"/>
<path style="stroke:none; fill:#9f9f9f" d="M 160.8 192L 161.6 192.8L 160.8 192z"/>
<path style="stroke:none; fill:#6f6f6f" d="M 185.6 192L 186.4 192.8L 185.6 192z"/>
<path style="stroke:none; fill:#bdbdbd" d="M 192.8 192L 193.6 192.8L 192.8 192z"/>
<path style="stroke:none; fill:#2f2f2f" d="M 193.6 192L 194.4 192.8L 193.6 192z"/>
<path style="stroke:none; fill:#414141" d="M 217.6 192L 218.4 192.8L 217.6 192z"/>
<path style="stroke:none; fill:#515151" d="M 225.6 192L 226.4 192.8L 225.6 192z"/>
<path style="stroke:none; fill:#6f6f6f" d="M 155.2 192.8L 156 193.6L 155.2 192.8z"/>
<path style="stroke:none; fill:#bdbdbd" d="M 156 192.8L 156 193.6L 159.2 193.6C 157.995 193.054 157.348 192.939 156 192.8z"/>
<path style="stroke:none; fill:#6f6f6f" d="M 159.2 192.8L 160 193.6L 159.2 192.8z"/>
<path style="stroke:none; fill:#5f5f5f" d="M 187.2 192.8L 188 193.6L 187.2 192.8z"/>
<path style="stroke:none; fill:#bdbdbd" d="M 188 192.8L 188 193.6L 191.2 193.6C 189.995 193.054 189.348 192.939 188 192.8z"/>
<path style="stroke:none; fill:#8f8f8f" d="M 191.2 192.8L 192 193.6L 191.2 192.8z"/>
<path style="stroke:none; fill:#2f2f2f" d="M 192 192.8L 192.8 193.6L 192 192.8z"/>
<path style="stroke:none; fill:#414141" d="M 219.2 192.8L 220 193.6L 219.2 192.8z"/>
<path style="stroke:none; fill:#8f8f8f" d="M 220 192.8L 220.8 193.6L 220 192.8z"/>
<path style="stroke:none; fill:#bdbdbd" d="M 220.8 192.8L 220.8 193.6L 224 193.6C 222.795 193.054 222.148 192.939 220.8 192.8z"/>
<path style="stroke:none; fill:#515151" d="M 224 192.8L 224.8 193.6L 224 192.8z"/>
<path style="stroke:none; fill:#7d7d7d" d="M 135.2 204.8L 135.2 205.6L 244.8 205.6C 236.206 201.994 221.346 204.8 212 204.8L 135.2 204.8z"/>
<path style="stroke:none; fill:#414141" d="M 301.6 204.8L 301.6 205.6L 351.2 205.6L 351.2 215.2C 352.228 212.75 353.148 206.76 350.146 205.282C 346.573 203.525 339.921 204.8 336 204.8L 301.6 204.8z"/>
<path style="stroke:none; fill:#6f6f6f" d="M 351.2 204.8L 352 205.6L 351.2 204.8z"/>
<path style="stroke:none; fill:#ffffff" d="M 135.2 205.6L 135.2 294.4L 244.8 294.4L 244.8 205.6L 135.2 205.6z"/>
<path style="stroke:none; fill:#414141" d="M 244.8 205.6L 244.8 295.2L 245.6 295.2L 245.6 232.8C 245.6 224.922 247.846 212.859 244.8 205.6z"/>
<path style="stroke:none; fill:#010101" d="M 301.6 205.6L 301.6 215.2L 351.2 215.2L 351.2 205.6L 301.6 205.6z"/>
<path style="stroke:none; fill:#414141" d="M 104.8 220L 104.8 256.8L 105.6 256.8C 105.6 246.398 108.808 229.551 104.8 220z"/>
<path style="stroke:none; fill:#010101" d="M 105.6 220L 105.6 256.8L 115.2 256.8L 115.2 220L 105.6 220z"/>
<path style="stroke:none; fill:#bdbdbd" d="M 154.4 224.8L 154.4 275.2L 155.2 275.2L 155.2 240.8C 155.2 235.877 156.316 229.366 154.4 224.8z"/>
<path style="stroke:none; fill:#414141" d="M 155.2 224.8L 155.2 225.6L 224.8 225.6C 218.88 223.116 209.606 224.8 203.2 224.8L 155.2 224.8z"/>
<path style="stroke:none; fill:#7d7d7d" d="M 224.8 224.8L 224.8 275.2L 225.6 275.2L 225.6 240.8C 225.6 235.877 226.716 229.366 224.8 224.8z"/>
<path style="stroke:none; fill:#010101" d="M 155.2 225.6L 155.2 275.2L 224.8 275.2L 224.8 225.6L 155.2 225.6z"/>
<path style="stroke:none; fill:#bdbdbd" d="M 255.2 234.4L 255.2 235.2L 404.8 235.2C 400.627 233.449 394.895 234.4 390.4 234.4L 360 234.4L 255.2 234.4z"/>
<path style="stroke:none; fill:#7d7d7d" d="M 255.2 244.8L 255.2 245.6L 404.8 245.6C 400.627 243.849 394.895 244.8 390.4 244.8L 360 244.8L 255.2 244.8z"/>
<path style="stroke:none; fill:#ffffff" d="M 255.2 245.6L 255.2 294.4L 404.8 294.4L 404.8 245.6L 255.2 245.6z"/>
<path style="stroke:none; fill:#414141" d="M 404.8 245.6L 404.8 295.2L 405.6 295.2L 405.6 261.6C 405.6 256.677 406.716 250.166 404.8 245.6M 301.6 264.8L 301.6 265.6L 351.2 265.6L 351.2 275.2C 352.228 272.75 353.148 266.76 350.146 265.282C 346.573 263.525 339.921 264.8 336 264.8L 301.6 264.8z"/>
<path style="stroke:none; fill:#6f6f6f" d="M 351.2 264.8L 352 265.6L 351.2 264.8z"/>
<path style="stroke:none; fill:#010101" d="M 301.6 265.6L 301.6 275.2L 351.2 275.2L 351.2 265.6L 301.6 265.6z"/>
<path style="stroke:none; fill:#bdbdbd" d="M 35.2 294.4L 35.2 295.2L 124.8 295.2C 117.541 292.154 105.478 294.4 97.6 294.4L 35.2 294.4M 135.2 294.4L 135.2 295.2L 244.8 295.2C 236.206 291.594 221.346 294.4 212 294.4L 135.2 294.4M 255.2 294.4L 255.2 295.2L 404.8 295.2C 400.627 293.449 394.895 294.4 390.4 294.4L 360 294.4L 255.2 294.4M 425.6 294.4L 425.6 295.2L 524.8 295.2C 516.778 291.834 503.117 294.4 494.4 294.4L 425.6 294.4z"/>
</g>
</svg>